<svg width="800" height="800" viewBox="0 0 800 800" fill="none" xmlns="http://www.w3.org/2000/svg">
<g clip-path="url(#clip0_36_8)">
<path d="M556.308 545.999C552.516 545.999 548.771 546.199 545.06 546.527L501.526 471.123L433.841 588.355L446.221 609.799C435.487 628.428 429.309 650 429.309 673.002C429.309 743.03 486.28 800.002 556.308 800.002C626.336 800.002 683.308 743.03 683.308 673.002C683.308 602.974 626.335 545.999 556.308 545.999ZM556.308 741.383C518.601 741.383 487.924 710.706 487.924 672.999C487.924 635.291 518.601 604.614 556.308 604.614C594.016 604.614 624.693 635.291 624.693 672.999C624.693 710.706 594.013 741.383 556.308 741.383Z" fill="black"/>
<path d="M570.477 0L254.94 546.527C251.232 546.199 247.485 545.999 243.692 545.999C173.664 545.999 116.692 602.971 116.692 672.999C116.692 743.027 173.664 799.998 243.692 799.998C313.72 799.998 370.691 743.027 370.691 672.999C370.691 650 364.513 628.425 353.779 609.797L613.388 160.14C645.761 104.072 626.547 32.3718 570.477 0ZM243.693 741.383C205.986 741.383 175.309 710.706 175.309 672.999C175.309 635.291 205.986 604.614 243.693 604.614C281.401 604.614 312.078 635.291 312.078 672.999C312.078 710.706 281.399 741.383 243.693 741.383Z" fill="#FFC62B"/>
<path d="M229.525 0C173.453 32.3718 154.239 104.072 186.612 160.14L298.476 353.893L366.16 236.659L229.525 0Z" fill="black"/>
</g>
<defs>
<clipPath id="clip0_36_8">
<rect width="800" height="800" fill="white"/>
</clipPath>
</defs>
</svg>
